{
  "accessors": [
    {
      "bufferView": 2,
      "componentType": 5126,
      "count": 343,
      "max": [
        0.08900769799947739,
        0.8387069702148438,
        0.08900769799947739
      ],
      "min": [
        -0.08900749683380127,
        0.5377060174942017,
        -0.08900749683380127
      ],
      "type": "VEC3"
    },
    {
      "bufferView": 2,
      "byteOffset": 4116,
      "componentType": 5126,
      "count": 343,
      "max": [
        1.0,
        1.0,
        1.0
      ],
      "min": [
        -1.0,
        -1.0,
        -1.0
      ],
      "type": "VEC3"
    },
    {
      "bufferView": 1,
      "componentType": 5126,
      "count": 343,
      "max": [
        0.9789999723434448,
        0.9853870272636414
      ],
      "min": [
        0.02031729929149151,
        0.02119860053062439
      ],
      "type": "VEC2"
    },
    {
      "bufferView": 1,
      "byteOffset": 2744,
      "componentType": 5126,
      "count": 343,
      "max": [
        0.9789999723434448,
        0.9853870272636414
      ],
      "min": [
        0.02031729929149151,
        0.02119860053062439
      ],
      "type": "VEC2"
    },
    {
      "bufferView": 0,
      "componentType": 5125,
      "count": 1608,
      "type": "SCALAR"
    },
    {
      "bufferView": 2,
      "byteOffset": 8232,
      "componentType": 5126,
      "count": 1793,
      "max": [
        0.4416399896144867,
        0.994147002696991,
        0.4416399896144867
      ],
      "min": [
        -0.4416399896144867,
        -1.0,
        -0.4416399896144867
      ],
      "type": "VEC3"
    },
    {
      "bufferView": 2,
      "byteOffset": 29748,
      "componentType": 5126,
      "count": 1793,
      "max": [
        1.0,
        1.0,
        1.0
      ],
      "min": [
        -1.0,
        -1.0,
        -1.0
      ],
      "type": "VEC3"
    },
    {
      "bufferView": 3,
      "componentType": 5126,
      "count": 1793,
      "max": [
        1.0,
        1.0,
        1.0,
        1.0
      ],
      "min": [
        -1.0,
        -1.0,
        -1.0,
        -1.0
      ],
      "type": "VEC4"
    },
    {
      "bufferView": 1,
      "byteOffset": 5488,
      "componentType": 5126,
      "count": 1793,
      "max": [
        0.986581027507782,
        0.991707980632782
      ],
      "min": [
        0.01265180017799139,
        0.012277700006961823
      ],
      "type": "VEC2"
    },
    {
      "bufferView": 1,
      "byteOffset": 19832,
      "componentType": 5126,
      "count": 1793,
      "max": [
        0.9891790151596069,
        0.994346022605896
      ],
      "min": [
        0.008937720209360123,
        0.012364099733531475
      ],
      "type": "VEC2"
    },
    {
      "bufferView": 0,
      "byteOffset": 6432,
      "componentType": 5125,
      "count": 7050,
      "type": "SCALAR"
    },
    {
      "bufferView": 2,
      "byteOffset": 51264,
      "componentType": 5126,
      "count": 530,
      "max": [
        0.5202609896659851,
        1.0,
        0.5202620029449463
      ],
      "min": [
        -0.5202609896659851,
        0.29012900590896606,
        -0.5202620029449463
      ],
      "type": "VEC3"
    },
    {
      "bufferView": 2,
      "byteOffset": 57624,
      "componentType": 5126,
      "count": 530,
      "max": [
        1.0,
        0.9933375716209412,
        1.0
      ],
      "min": [
        -1.0,
        -0.993903636932373,
        -1.0
      ],
      "type": "VEC3"
    },
    {
      "bufferView": 3,
      "byteOffset": 28688,
      "componentType": 5126,
      "count": 530,
      "max": [
        1.0,
        0.3849502205848694,
        1.0,
        1.0
      ],
      "min": [
        -1.0,
        -0.31726664304733276,
        -1.0,
        1.0
      ],
      "type": "VEC4"
    },
    {
      "bufferView": 1,
      "byteOffset": 34176,
      "componentType": 5126,
      "count": 530,
      "max": [
        0.985381007194519,
        0.9842619895935059
      ],
      "min": [
        0.017526399344205856,
        0.01780249923467636
      ],
      "type": "VEC2"
    },
    {
      "bufferView": 1,
      "byteOffset": 38416,
      "componentType": 5126,
      "count": 530,
      "max": [
        0.9613209962844849,
        0.9723399877548218
      ],
      "min": [
        0.019480500370264053,
        0.03231029957532883
      ],
      "type": "VEC2"
    },
    {
      "bufferView": 0,
      "byteOffset": 34632,
      "componentType": 5125,
      "count": 2484,
      "type": "SCALAR"
    }
  ],
  "asset": {
    "extras": {
      "author": "vasyl.yarmola (https://sketchfab.com/vasyl.yarmola)",
      "license": "CC-BY-4.0 (http://creativecommons.org/licenses/by/4.0/)",
      "source": "https://sketchfab.com/3d-models/lamp-9230e5db86434ef3a5ac4b7e1dc9e0a7",
      "title": "Lamp"
    },
    "generator": "Sketchfab-16.25.0",
    "version": "2.0"
  },
  "bufferViews": [
    {
      "buffer": 0,
      "byteLength": 44568,
      "name": "floatBufferViews",
      "target": 34963
    },
    {
      "buffer": 0,
      "byteLength": 42656,
      "byteOffset": 44568,
      "byteStride": 8,
      "name": "floatBufferViews",
      "target": 34962
    },
    {
      "buffer": 0,
      "byteLength": 63984,
      "byteOffset": 87224,
      "byteStride": 12,
      "name": "floatBufferViews",
      "target": 34962
    },
    {
      "buffer": 0,
      "byteLength": 37168,
      "byteOffset": 151208,
      "byteStride": 16,
      "name": "floatBufferViews",
      "target": 34962
    }
  ],
  "buffers": [
    {
      "byteLength": 188376,
      "uri": "scene.bin"
    }
  ],
  "extensionsUsed": [
    "KHR_materials_emissive_strength",
    "KHR_materials_specular"
  ],
  "images": [
    {
      "uri": "textures/lamp2a_shade_mat_baseColor.jpeg"
    },
    {
      "uri": "textures/lamp2a_shade_mat_metallicRoughness.png"
    },
    {
      "uri": "textures/lamp2a_shade_mat_normal.png"
    },
    {
      "uri": "textures/lamp2a_main_mat_baseColor.jpeg"
    },
    {
      "uri": "textures/lamp2a_main_mat_metallicRoughness.png"
    },
    {
      "uri": "textures/lamp2a_main_mat_normal.png"
    }
  ],
  "materials": [
    {
      "doubleSided": true,
      "emissiveFactor": [
        0.5811170206202497,
        0.29336487269955336,
        0.02355946040448669
      ],
      "name": "lamp2a_shade_mat",
      "normalTexture": {
        "index": 2
      },
      "pbrMetallicRoughness": {
        "baseColorTexture": {
          "index": 0
        },
        "metallicRoughnessTexture": {
          "index": 1
        }
      }
    },
    {
      "doubleSided": true,
      "name": "lamp2a_main_mat",
      "normalTexture": {
        "index": 5
      },
      "occlusionTexture": {
        "index": 4
      },
      "pbrMetallicRoughness": {
        "baseColorTexture": {
          "index": 3
        },
        "metallicRoughnessTexture": {
          "index": 4
        }
      }
    },
    {
      "alphaMode": "BLEND",
      "doubleSided": true,
      "emissiveFactor": [
        1.0,
        1.0,
        1.0
      ],
      "extensions": {
        "KHR_materials_emissive_strength": {
          "emissiveStrength": 1.9352439931245502
        },
        "KHR_materials_specular": {
          "specularColorFactor": [
            1.0,
            1.0,
            1.0
          ],
          "specularFactor": 1.0
        }
      },
      "name": "lamp2a_glass_mat",
      "pbrMetallicRoughness": {
        "baseColorFactor": [
          0.2562222972110246,
          0.2562222972110246,
          0.2562222972110246,
          0.2692376678887815
        ],
        "roughnessFactor": 0.0
      }
    }
  ],
  "meshes": [
    {
      "name": "defaultMaterial",
      "primitives": [
        {
          "attributes": {
            "NORMAL": 1,
            "POSITION": 0,
            "TEXCOORD_0": 2,
            "TEXCOORD_1": 3
          },
          "indices": 4,
          "material": 2,
          "mode": 4
        }
      ]
    },
    {
      "name": "defaultMaterial",
      "primitives": [
        {
          "attributes": {
            "NORMAL": 6,
            "POSITION": 5,
            "TANGENT": 7,
            "TEXCOORD_0": 8,
            "TEXCOORD_1": 9
          },
          "indices": 10,
          "material": 1,
          "mode": 4
        }
      ]
    },
    {
      "name": "defaultMaterial",
      "primitives": [
        {
          "attributes": {
            "NORMAL": 12,
            "POSITION": 11,
            "TANGENT": 13,
            "TEXCOORD_0": 14,
            "TEXCOORD_1": 15
          },
          "indices": 16,
          "material": 0,
          "mode": 4
        }
      ]
    }
  ],
  "nodes": [
    {
      "children": [
        1
      ],
      "matrix": [
        0.3333333432674408,
        0.0,
        0.0,
        0.0,
        0.0,
        7.401487051415874e-17,
        -0.3333333432674408,
        0.0,
        0.0,
        0.3333333432674408,
        7.401487051415874e-17,
        0.0,
        0.0,
        0.0,
        0.0,
        1.0
      ],
      "name": "Sketchfab_model"
    },
    {
      "children": [
        2,
        4,
        6
      ],
      "matrix": [
        1.0,
        0.0,
        0.0,
        0.0,
        0.0,
        -4.371139006309477e-08,
        0.999999999999999,
        0.0,
        0.0,
        -0.999999999999999,
        -4.371139006309477e-08,
        0.0,
        0.0,
        0.0,
        0.0,
        1.0
      ],
      "name": "Collada visual scene group"
    },
    {
      "children": [
        3
      ],
      "name": "lamp2a_glass"
    },
    {
      "mesh": 0,
      "name": "defaultMaterial"
    },
    {
      "children": [
        5
      ],
      "name": "lamp2a_main"
    },
    {
      "mesh": 1,
      "name": "defaultMaterial"
    },
    {
      "children": [
        7
      ],
      "name": "lamp2a_shade"
    },
    {
      "mesh": 2,
      "name": "defaultMaterial"
    }
  ],
  "samplers": [
    {
      "magFilter": 9729,
      "minFilter": 9987,
      "wrapS": 10497,
      "wrapT": 10497
    }
  ],
  "scene": 0,
  "scenes": [
    {
      "name": "Sketchfab_Scene",
      "nodes": [
        0
      ]
    }
  ],
  "textures": [
    {
      "sampler": 0,
      "source": 0
    },
    {
      "sampler": 0,
      "source": 1
    },
    {
      "sampler": 0,
      "source": 2
    },
    {
      "sampler": 0,
      "source": 3
    },
    {
      "sampler": 0,
      "source": 4
    },
    {
      "sampler": 0,
      "source": 5
    }
  ]
}
