{
  "accessors": [
    {
      "bufferView": 3,
      "componentType": 5126,
      "count": 558,
      "max": [
        0.07999999821186066,
        0.14669057726860046,
        0.11999999731779099
      ],
      "min": [
        -0.07999999821186066,
        -0.00196496001444757,
        -0.12303825467824936
      ],
      "type": "VEC3"
    },
    {
      "bufferView": 3,
      "byteOffset": 6696,
      "componentType": 5126,
      "count": 558,
      "max": [
        1.0,
        1.0,
        1.0
      ],
      "min": [
        -1.0,
        -1.0,
        -1.0
      ],
      "type": "VEC3"
    },
    {
      "bufferView": 4,
      "componentType": 5126,
      "count": 558,
      "max": [
        1.0,
        0.9753229022026062,
        1.0,
        1.0
      ],
      "min": [
        -1.0,
        -0.943305492401123,
        -1.0,
        -1.0
      ],
      "type": "VEC4"
    },
    {
      "bufferView": 2,
      "componentType": 5126,
      "count": 558,
      "max": [
        0.9935089945793152,
        0.9932550191879272
      ],
      "min": [
        0.009863000363111496,
        0.009999990463256836
      ],
      "type": "VEC2"
    },
    {
      "bufferView": 1,
      "componentType": 5125,
      "count": 2424,
      "type": "SCALAR"
    },
    {
      "bufferView": 5,
      "componentType": 5126,
      "count": 4,
      "max": [
        1.0,
        0.0,
        0.0,
        0.0,
        100.0,
        1.0,
        68.9655532836914,
        0.0,
        0.0,
        0.0,
        100.0,
        0.0,
        0.0,
        9.99999883788405e-07,
        3.139164546795553e-13,
        1.0
      ],
      "min": [
        9.854355179084173e-12,
        -100.0,
        -3.139164618914947e-05,
        0.0,
        0.0,
        4.3711379476008005e-06,
        0.0,
        0.0,
        -68.9655532836914,
        -3.139164618914947e-05,
        1.0,
        0.0,
        -13.97586441040039,
        -2.0000007152557373,
        -1.3103450536727905,
        1.0
      ],
      "type": "MAT4"
    },
    {
      "bufferView": 0,
      "componentType": 5123,
      "count": 558,
      "type": "VEC4"
    },
    {
      "bufferView": 4,
      "byteOffset": 8928,
      "componentType": 5126,
      "count": 558,
      "max": [
        1.0,
        0.0,
        0.0,
        0.0
      ],
      "min": [
        1.0,
        0.0,
        0.0,
        0.0
      ],
      "type": "VEC4"
    }
  ],
  "asset": {
    "extras": {
      "author": "Typur (https://sketchfab.com/Typur)",
      "license": "CC-BY-4.0 (http://creativecommons.org/licenses/by/4.0/)",
      "source": "https://sketchfab.com/3d-models/lever-from-gmod-5ec9821cae3f42f6a60946bae32bc105",
      "title": "Lever from gmod"
    },
    "generator": "Sketchfab-16.29.0",
    "version": "2.0"
  },
  "bufferViews": [
    {
      "buffer": 0,
      "byteLength": 4464,
      "byteStride": 8,
      "name": "shortBufferViews",
      "target": 34962
    },
    {
      "buffer": 0,
      "byteLength": 9696,
      "byteOffset": 4464,
      "name": "floatBufferViews",
      "target": 34963
    },
    {
      "buffer": 0,
      "byteLength": 4464,
      "byteOffset": 14160,
      "byteStride": 8,
      "name": "floatBufferViews",
      "target": 34962
    },
    {
      "buffer": 0,
      "byteLength": 13392,
      "byteOffset": 18624,
      "byteStride": 12,
      "name": "floatBufferViews",
      "target": 34962
    },
    {
      "buffer": 0,
      "byteLength": 17856,
      "byteOffset": 32016,
      "byteStride": 16,
      "name": "floatBufferViews",
      "target": 34962
    },
    {
      "buffer": 0,
      "byteLength": 256,
      "byteOffset": 49872,
      "name": "floatBufferViews"
    }
  ],
  "buffers": [
    {
      "byteLength": 50128,
      "uri": "scene.bin"
    }
  ],
  "extensionsUsed": [
    "KHR_materials_specular"
  ],
  "images": [
    {
      "uri": "textures/materialsmaxofs2dmodelsbutton_03_baseColor.png"
    },
    {
      "uri": "textures/materialsmaxofs2dmodelsbutton_03_normal.png"
    }
  ],
  "materials": [
    {
      "doubleSided": true,
      "extensions": {
        "KHR_materials_specular": {
          "specularColorFactor": [
            1.0,
            1.0,
            1.0
          ],
          "specularFactor": 0.2
        }
      },
      "name": "materialsmaxofs2dmodelsbutton_03",
      "normalTexture": {
        "index": 1
      },
      "pbrMetallicRoughness": {
        "baseColorTexture": {
          "index": 0
        },
        "metallicFactor": 0.0,
        "roughnessFactor": 0.616
      }
    }
  ],
  "meshes": [
    {
      "name": "Object_0",
      "primitives": [
        {
          "attributes": {
            "JOINTS_0": 6,
            "NORMAL": 1,
            "POSITION": 0,
            "TANGENT": 2,
            "TEXCOORD_0": 3,
            "TEXCOORD_1": 3,
            "WEIGHTS_0": 7
          },
          "indices": 4,
          "material": 0,
          "mode": 4
        }
      ]
    }
  ],
  "nodes": [
    {
      "children": [
        1
      ],
      "matrix": [
        1.0,
        0.0,
        0.0,
        0.0,
        0.0,
        2.220446049250313e-16,
        -1.0,
        0.0,
        0.0,
        1.0,
        2.220446049250313e-16,
        0.0,
        0.0,
        0.0,
        0.0,
        1.0
      ],
      "name": "Sketchfab_model"
    },
    {
      "children": [
        2
      ],
      "name": "root"
    },
    {
      "children": [
        3
      ],
      "matrix": [
        1.0,
        0.0,
        0.0,
        0.0,
        0.0,
        2.220446049250313e-16,
        1.0,
        0.0,
        0.0,
        -1.0,
        2.220446049250313e-16,
        0.0,
        0.0,
        0.0,
        0.0,
        1.0
      ],
      "name": "GLTF_SceneRootNode"
    },
    {
      "children": [
        4
      ],
      "matrix": [
        0.009999999776482582,
        0.0,
        0.0,
        0.0,
        0.0,
        0.009999999776482582,
        0.0,
        0.0,
        0.0,
        0.0,
        0.009999999776482582,
        0.0,
        0.0,
        0.0,
        0.0,
        1.0
      ],
      "name": "button_03.mdl_9"
    },
    {
      "children": [
        5,
        7,
        6
      ],
      "name": "GLTF_created_0"
    },
    {
      "children": [
        8
      ],
      "name": "GLTF_created_0_rootJoint"
    },
    {
      "name": "button_03.mdl/button_03.smd_8"
    },
    {
      "mesh": 0,
      "name": "Object_7",
      "skin": 0
    },
    {
      "children": [
        9
      ],
      "name": "root_7",
      "rotation": [
        -2.2197248483735166e-07,
        -1.0048592410634785e-14,
        0.7071068286895752,
        0.7071068286895752
      ],
      "translation": [
        9.999999974752427e-07,
        0.0,
        0.0
      ]
    },
    {
      "children": [
        10
      ],
      "name": "switch_6",
      "rotation": [
        -1.0522573413193452e-14,
        0.37139081954956055,
        -5.739585883120495e-15,
        0.9284767508506775
      ],
      "translation": [
        1.899999976158142,
        1.9999998807907104,
        -1.9767431506771682e-13
      ]
    },
    {
      "name": "tip_5",
      "rotation": [
        -8.881784197001252e-16,
        1.4901164746561335e-08,
        0.0,
        1.0
      ],
      "translation": [
        12.60000228881836,
        1.7791969639802119e-06,
        -8.56665337778395e-07
      ]
    }
  ],
  "samplers": [
    {
      "magFilter": 9729,
      "minFilter": 9987,
      "wrapS": 10497,
      "wrapT": 10497
    }
  ],
  "scene": 0,
  "scenes": [
    {
      "name": "Sketchfab_Scene",
      "nodes": [
        0
      ]
    }
  ],
  "skins": [
    {
      "inverseBindMatrices": 5,
      "joints": [
        5,
        8,
        9,
        10
      ],
      "skeleton": 5
    }
  ],
  "textures": [
    {
      "sampler": 0,
      "source": 0
    },
    {
      "sampler": 0,
      "source": 1
    }
  ]
}
