{
  "accessors": [
    {
      "bufferView": 2,
      "componentType": 5126,
      "count": 362,
      "max": [
        1.4400999546051025,
        1.0,
        -0.011610000394284725
      ],
      "min": [
        -1.4400999546051025,
        -1.0,
        -0.06757999956607819
      ],
      "type": "VEC3"
    },
    {
      "bufferView": 2,
      "byteOffset": 4344,
      "componentType": 5126,
      "count": 362,
      "max": [
        0.7071068286895752,
        0.819543182849884,
        1.0
      ],
      "min": [
        -0.7071068286895752,
        -0.819543182849884,
        -1.0
      ],
      "type": "VEC3"
    },
    {
      "bufferView": 1,
      "componentType": 5126,
      "count": 362,
      "max": [
        1.0,
        1.3167999982833862
      ],
      "min": [
        0.0,
        0.2473199963569641
      ],
      "type": "VEC2"
    },
    {
      "bufferView": 0,
      "componentType": 5125,
      "count": 1416,
      "type": "SCALAR"
    },
    {
      "bufferView": 2,
      "byteOffset": 8688,
      "componentType": 5126,
      "count": 3177,
      "max": [
        1.3004499673843384,
        0.9832599759101868,
        0.23431000113487244
      ],
      "min": [
        -1.3508199453353882,
        -0.9882100224494934,
        -0.294730007648468
      ],
      "type": "VEC3"
    },
    {
      "bufferView": 2,
      "byteOffset": 46812,
      "componentType": 5126,
      "count": 3177,
      "max": [
        0.9999995827674866,
        1.0,
        0.999986469745636
      ],
      "min": [
        -0.9999502301216125,
        -1.0,
        -1.0
      ],
      "type": "VEC3"
    },
    {
      "bufferView": 1,
      "byteOffset": 2896,
      "componentType": 5126,
      "count": 3177,
      "max": [
        1.0,
        1.0
      ],
      "min": [
        0.0,
        0.0
      ],
      "type": "VEC2"
    },
    {
      "bufferView": 0,
      "byteOffset": 5664,
      "componentType": 5125,
      "count": 12972,
      "type": "SCALAR"
    },
    {
      "bufferView": 2,
      "byteOffset": 84936,
      "componentType": 5126,
      "count": 3195,
      "max": [
        1.3508199453353882,
        0.9830399751663208,
        0.22655999660491943
      ],
      "min": [
        -1.3508199453353882,
        -1.0069999694824219,
        -0.0279300007969141
      ],
      "type": "VEC3"
    },
    {
      "bufferView": 2,
      "byteOffset": 123276,
      "componentType": 5126,
      "count": 3195,
      "max": [
        0.9994283318519592,
        1.0,
        1.0
      ],
      "min": [
        -0.9994283318519592,
        -1.0,
        -1.0
      ],
      "type": "VEC3"
    },
    {
      "bufferView": 1,
      "byteOffset": 28312,
      "componentType": 5126,
      "count": 3195,
      "max": [
        1.0,
        1.0
      ],
      "min": [
        0.0,
        0.0
      ],
      "type": "VEC2"
    },
    {
      "bufferView": 0,
      "byteOffset": 57552,
      "componentType": 5125,
      "count": 13284,
      "type": "SCALAR"
    },
    {
      "bufferView": 2,
      "byteOffset": 161616,
      "componentType": 5126,
      "count": 348,
      "max": [
        1.3889600038528442,
        1.0000699758529663,
        0.0
      ],
      "min": [
        -1.4400999546051025,
        -1.0002100467681885,
        -0.34307000041007996
      ],
      "type": "VEC3"
    },
    {
      "bufferView": 2,
      "byteOffset": 165792,
      "componentType": 5126,
      "count": 348,
      "max": [
        0.7938406467437744,
        0.8179222345352173,
        1.0
      ],
      "min": [
        -0.7071068286895752,
        -0.8179094791412354,
        -1.0
      ],
      "type": "VEC3"
    },
    {
      "bufferView": 1,
      "byteOffset": 53872,
      "componentType": 5126,
      "count": 348,
      "max": [
        0.9964100122451782,
        1.0
      ],
      "min": [
        -0.0004799999878741801,
        0.0
      ],
      "type": "VEC2"
    },
    {
      "bufferView": 0,
      "byteOffset": 110688,
      "componentType": 5125,
      "count": 1416,
      "type": "SCALAR"
    }
  ],
  "asset": {
    "extras": {
      "author": "Tomations (https://sketchfab.com/Tomations)",
      "license": "CC-BY-4.0 (http://creativecommons.org/licenses/by/4.0/)",
      "source": "https://sketchfab.com/3d-models/open-books-cbd8cc04489d41b08c1416c3425cfaf5",
      "title": "Open Books"
    },
    "generator": "Sketchfab-12.63.0",
    "version": "2.0"
  },
  "bufferViews": [
    {
      "buffer": 0,
      "byteLength": 116352,
      "name": "floatBufferViews",
      "target": 34963
    },
    {
      "buffer": 0,
      "byteLength": 56656,
      "byteOffset": 116352,
      "byteStride": 8,
      "name": "floatBufferViews",
      "target": 34962
    },
    {
      "buffer": 0,
      "byteLength": 169968,
      "byteOffset": 173008,
      "byteStride": 12,
      "name": "floatBufferViews",
      "target": 34962
    }
  ],
  "buffers": [
    {
      "byteLength": 342976,
      "uri": "scene.bin"
    }
  ],
  "extensionsRequired": [
    "KHR_materials_pbrSpecularGlossiness"
  ],
  "extensionsUsed": [
    "KHR_materials_pbrSpecularGlossiness"
  ],
  "images": [
    {
      "uri": "textures/Book_Cover_Blue_diffuse.jpeg"
    },
    {
      "uri": "textures/Book_Pages.001_diffuse.jpeg"
    },
    {
      "uri": "textures/Book_Cover_Red_diffuse.jpeg"
    }
  ],
  "materials": [
    {
      "doubleSided": true,
      "extensions": {
        "KHR_materials_pbrSpecularGlossiness": {
          "diffuseFactor": [
            1.0,
            1.0,
            1.0,
            1.0
          ],
          "diffuseTexture": {
            "index": 0
          },
          "glossinessFactor": 0.0,
          "specularFactor": [
            0.0,
            0.0,
            0.0
          ]
        }
      },
      "name": "Book_Cover_Blue"
    },
    {
      "doubleSided": true,
      "extensions": {
        "KHR_materials_pbrSpecularGlossiness": {
          "diffuseFactor": [
            1.0,
            1.0,
            1.0,
            1.0
          ],
          "diffuseTexture": {
            "index": 1
          },
          "glossinessFactor": 0.0,
          "specularFactor": [
            0.0,
            0.0,
            0.0
          ]
        }
      },
      "name": "Book_Pages.001"
    },
    {
      "doubleSided": true,
      "extensions": {
        "KHR_materials_pbrSpecularGlossiness": {
          "diffuseFactor": [
            1.0,
            1.0,
            1.0,
            1.0
          ],
          "diffuseTexture": {
            "index": 2
          },
          "glossinessFactor": 0.0,
          "specularFactor": [
            0.0,
            0.0,
            0.0
          ]
        }
      },
      "name": "Book_Cover_Red"
    }
  ],
  "meshes": [
    {
      "name": "Open Book",
      "primitives": [
        {
          "attributes": {
            "NORMAL": 1,
            "POSITION": 0,
            "TEXCOORD_0": 2
          },
          "indices": 3,
          "material": 2,
          "mode": 4
        }
      ]
    },
    {
      "name": "Open Book Pages.001",
      "primitives": [
        {
          "attributes": {
            "NORMAL": 5,
            "POSITION": 4,
            "TEXCOORD_0": 6
          },
          "indices": 7,
          "material": 1,
          "mode": 4
        }
      ]
    },
    {
      "name": "Open Book Pages",
      "primitives": [
        {
          "attributes": {
            "NORMAL": 9,
            "POSITION": 8,
            "TEXCOORD_0": 10
          },
          "indices": 11,
          "material": 1,
          "mode": 4
        }
      ]
    },
    {
      "name": "Open Book.001",
      "primitives": [
        {
          "attributes": {
            "NORMAL": 13,
            "POSITION": 12,
            "TEXCOORD_0": 14
          },
          "indices": 15,
          "material": 0,
          "mode": 4
        }
      ]
    }
  ],
  "nodes": [
    {
      "children": [
        1
      ],
      "matrix": [
        1.0,
        0.0,
        0.0,
        0.0,
        0.0,
        2.220446049250313e-16,
        -1.0,
        0.0,
        0.0,
        1.0,
        2.220446049250313e-16,
        0.0,
        0.0,
        0.0,
        0.0,
        1.0
      ],
      "name": "Sketchfab_model"
    },
    {
      "children": [
        2,
        4,
        6,
        8,
        10
      ],
      "name": "Root"
    },
    {
      "children": [
        3
      ],
      "matrix": [
        0.22971000000000005,
        0.05923000000000001,
        0.0,
        0.0,
        -0.05923000000000001,
        0.22971000000000005,
        0.0,
        0.0,
        0.0,
        0.0,
        0.23722000000000001,
        0.0,
        1.01031,
        0.2918800000000001,
        0.8423,
        1.0
      ],
      "name": "Open Book"
    },
    {
      "mesh": 0,
      "name": "Open Book"
    },
    {
      "children": [
        5
      ],
      "matrix": [
        0.12393000000000001,
        0.20227,
        0.0,
        0.0,
        -0.20227,
        0.12393000000000001,
        0.0,
        0.0,
        0.0,
        0.0,
        0.23722000000000001,
        0.0,
        1.04465,
        0.5384599999999999,
        0.90552,
        1.0
      ],
      "name": "Open Book Pages.001"
    },
    {
      "mesh": 1,
      "name": "Open Book Pages.001"
    },
    {
      "children": [
        7
      ],
      "matrix": [
        0.22971000000000005,
        0.05923000000000001,
        0.0,
        0.0,
        -0.05923000000000001,
        0.22971000000000005,
        0.0,
        0.0,
        0.0,
        0.0,
        0.23722000000000001,
        0.0,
        1.01031,
        0.2918800000000001,
        0.8423,
        1.0
      ],
      "name": "Open Book Pages"
    },
    {
      "mesh": 2,
      "name": "Open Book Pages"
    },
    {
      "children": [
        9
      ],
      "matrix": [
        0.12393000000000001,
        0.20227,
        0.0,
        0.0,
        -0.20227,
        0.12393000000000001,
        0.0,
        0.0,
        0.0,
        0.0,
        0.23722000000000001,
        0.0,
        1.04465,
        0.5384599999999999,
        0.90552,
        1.0
      ],
      "name": "Open Book.001"
    },
    {
      "mesh": 3,
      "name": "Open Book.001"
    },
    {
      "children": [
        11
      ],
      "matrix": [
        1.0,
        0.0,
        0.0,
        0.0,
        0.0,
        1.0,
        0.0,
        0.0,
        0.0,
        0.0,
        1.0,
        0.0,
        1.0091999999999999,
        0.5371400000000001,
        1.41813,
        1.0
      ],
      "name": "Point"
    },
    {
      "name": "Point"
    }
  ],
  "samplers": [
    {
      "magFilter": 9729,
      "minFilter": 9987,
      "wrapS": 10497,
      "wrapT": 10497
    }
  ],
  "scene": 0,
  "scenes": [
    {
      "name": "Sketchfab_Scene",
      "nodes": [
        0
      ]
    }
  ],
  "textures": [
    {
      "sampler": 0,
      "source": 0
    },
    {
      "sampler": 0,
      "source": 1
    },
    {
      "sampler": 0,
      "source": 2
    }
  ]
}
